<svg xmlns="http://www.w3.org/2000/svg" viewBox="0 0 846 525"><defs><style>.cls-1{fill:#ab6d1d;opacity:0.07;}.cls-2{fill:#b06f66;}.cls-3{fill:#fff;}.cls-4{fill:#b0a19e;}</style></defs><g id="Camada_4" data-name="Camada 4"><path class="cls-1" d="M252.77,80.2c41.09,4.8,83.41,18.86,122.62,7.6,19.91-5.71,36.73-17.52,56.69-23.12,32.17-9,67.13-.78,101.05.42,48.41,1.72,98.61-10.95,144.37,2.6,19.14,5.67,38.13,18.36,38.86,35.44.13,3.06-.33,6.2.65,9.15,3,9.17,17,11.35,26.09,17,15,9.25,16.09,27.77,12.63,43.12s-10,31.09-5.28,46.21c6,19.2,29.53,34.07,27.83,53.85-1.37,15.84-18.38,27-27.68,40.75-18.19,26.94-8.33,66.52-37.14,85.77-11.13,7.45-27.32,11.07-32.57,22.22-3.7,7.86-.42,16.92-2.69,25.17-3.17,11.56-16.58,19.17-30.08,22.49s-27.86,3.51-41.45,6.58a92.35,92.35,0,0,0-29.23,12.07c-5.76,3.68-11,8-17.42,10.83-10,4.41-21.85,4.69-33.12,3.86-53.25-3.92-101.11-30-153.95-36.9-12.81-1.68-25.84-2.21-38.48-4.65C301.88,454.35,276.19,430.37,245,423c-25.65-6.09-56,2.94-71.37-26.7-10.32-19.84-2.84-44.56-9.52-65.9-5.31-17-19-30.07-26.28-46.33-3.75-8.39-5.7-17.47-7.33-26.52a419.27,419.27,0,0,1-6.55-66.6c-.18-9.95,0-20,2.37-29.68C140.91,101.55,193.59,73.28,252.77,80.2Z"/><path class="cls-2" d="M418.36,327.28a100.33,100.33,0,0,1-1.89-21.11c.94-76.36,88.24-140.1,159.65-100.24,8.52,4.75,22.47,16.63,29.09,23.79,27.53,29.78,38.3,75.09,21.13,113.77-16.55,37.27-53.11,66.43-94.38,69.6a92.52,92.52,0,0,1-36.59-4.24A106.49,106.49,0,0,1,480,402.1C450.05,386.41,425.19,361.35,418.36,327.28Z"/><path class="cls-3" d="M425.76,326a95,95,0,0,1-1.8-19.91c.84-72,83.14-132.23,150.54-94.68,8,4.48,21.2,15.67,27.45,22.43,26,28.07,36.19,70.8,20,107.3-15.59,35.17-50.06,62.7-89,65.72a87.2,87.2,0,0,1-34.53-4,101.8,101.8,0,0,1-14.53-6.35C455.7,381.79,432.23,358.17,425.76,326Z"/><path class="cls-2" d="M495.27,278.23a15.59,15.59,0,0,0,.49,6.16,9.84,9.84,0,0,0,3.74,4.77,19.8,19.8,0,0,0,11.59,3.41,17.12,17.12,0,0,0,11.09-4.15,16.52,16.52,0,0,0,5.56-10.3c.49-3.9-.71-8.07-3.91-10.27a15,15,0,0,0-5.19-2.62,17.87,17.87,0,0,0-5.83-.7,21.88,21.88,0,0,0-5.88,1,19.23,19.23,0,0,0-5.43,2.59,15.37,15.37,0,0,0-4.26,4.32A12.94,12.94,0,0,0,495.27,278.23Zm-.21,0a15.74,15.74,0,0,1,5.76-11,20.41,20.41,0,0,1,11.89-4.78,19.84,19.84,0,0,1,6.54.71,16.62,16.62,0,0,1,5.87,3.08c.44.34.82.75,1.24,1.12a11.69,11.69,0,0,1,1.1,1.34,11.44,11.44,0,0,1,1.48,3.07,14.55,14.55,0,0,1,.46,6.58,18,18,0,0,1-6.34,11.11,18.34,18.34,0,0,1-12,4.17,19.87,19.87,0,0,1-11.85-4.11,10.29,10.29,0,0,1-3.68-5.06A17.28,17.28,0,0,1,495.06,278.21Z"/><path class="cls-2" d="M552.75,303.31a15.58,15.58,0,0,0,.49,6.16,9.75,9.75,0,0,0,3.75,4.77,19.83,19.83,0,0,0,11.58,3.42,17.13,17.13,0,0,0,11.09-4.16,16.54,16.54,0,0,0,5.57-10.29c.48-3.91-.72-8.07-3.92-10.28a15,15,0,0,0-5.19-2.61,17.85,17.85,0,0,0-5.83-.71,21.75,21.75,0,0,0-5.87,1,19.43,19.43,0,0,0-5.44,2.59,15.37,15.37,0,0,0-4.26,4.32A13,13,0,0,0,552.75,303.31Zm-.21,0a15.76,15.76,0,0,1,5.76-11,20.36,20.36,0,0,1,11.89-4.77,19.57,19.57,0,0,1,6.54.7,16.49,16.49,0,0,1,5.87,3.09c.44.34.83.74,1.24,1.12a10,10,0,0,1,1.1,1.34,11.57,11.57,0,0,1,1.49,3.06,14.6,14.6,0,0,1,.45,6.59,18,18,0,0,1-6.34,11.1,18.31,18.31,0,0,1-12,4.17,19.81,19.81,0,0,1-11.86-4.11,10.21,10.21,0,0,1-3.67-5.06A17,17,0,0,1,552.54,303.3Z"/><path class="cls-2" d="M531.82,326.53a24.86,24.86,0,0,1,7.43,4.38,35,35,0,0,1,5.88,6.34c1.69,2.31,3.37,4.84,3.81,7.82a22.16,22.16,0,0,1-.73,8.73,26,26,0,0,1-9.81,14.29,22,22,0,0,1-17,3.54,20.33,20.33,0,0,1-8.2-3.6,20.63,20.63,0,0,1-5.74-6.93,25.63,25.63,0,0,1-2.59-8.57,24.22,24.22,0,0,1-.13-4.51,25.67,25.67,0,0,1,.71-4.44,26.09,26.09,0,0,1,9.76-14.5,18.45,18.45,0,0,1,8-3.4A17,17,0,0,1,531.82,326.53Zm-.07.2a18.71,18.71,0,0,0-4.18-.86,14.64,14.64,0,0,0-4.23.32,17.49,17.49,0,0,0-7.47,3.78,24.3,24.3,0,0,0-5.33,6.41,28,28,0,0,0-3.08,7.7,24.68,24.68,0,0,0-.62,4.08,23.6,23.6,0,0,0,.16,4.11,24.22,24.22,0,0,0,2.29,7.89A17.54,17.54,0,0,0,521.72,370a20.55,20.55,0,0,0,15.91-3,24.91,24.91,0,0,0,9.58-13.46,21.53,21.53,0,0,0,1-8.34c-.31-2.79-1.81-5.31-3.4-7.67a34,34,0,0,0-5.65-6.44A23.06,23.06,0,0,0,531.75,326.73Z"/><path class="cls-2" d="M523.31,230.33a2.75,2.75,0,0,1,.83-.72,3.4,3.4,0,0,1,1.09-.3,3.55,3.55,0,0,1,2.23.56,3.3,3.3,0,0,1,.86.92,3.07,3.07,0,0,1,.37,1.26,3.59,3.59,0,0,1-.82,2.42,3.83,3.83,0,0,1-2.29,1.4,3.07,3.07,0,0,1-1.5-.15,3.18,3.18,0,0,1-1.2-.86,3.51,3.51,0,0,1-.81-2.49,3.21,3.21,0,0,1,.37-1.22,2.07,2.07,0,0,1,.87-.82l.16.14a2.77,2.77,0,0,0,.91,2.94,1.88,1.88,0,0,0,1,.4,1.71,1.71,0,0,0,1.25-.47,1.75,1.75,0,0,0,.18-2.65,2.55,2.55,0,0,0-3.34-.22Z"/><path class="cls-2" d="M563.23,245.79c.2,1.11.37,2.22.55,3.33l-.12-.24a3,3,0,0,0,3,.2,2.42,2.42,0,0,0,1.58-2.14c0-.81-.76-1.41-1.57-1.75a2.3,2.3,0,0,0-2.37.08l-.13.12a.69.69,0,0,0-.44.57,1.16,1.16,0,0,0,.27,1l-.09.18a1.49,1.49,0,0,1-1.15-1.13,1.82,1.82,0,0,1,.49-1.86l-.13.12a3.09,3.09,0,0,1,2-1.37,4.09,4.09,0,0,1,4.19,1.72,3.48,3.48,0,0,1-.39,4.48,4.55,4.55,0,0,1-4,1.27,3.36,3.36,0,0,1-1.85-1l-.12-.12v-.12c0-1.13,0-2.26,0-3.38Z"/><path class="cls-2" d="M450.39,333.87l.74,5.65-.12-.25a5.27,5.27,0,0,0,5.37.56,4.64,4.64,0,0,0,3.12-4c0-1.68-1.36-3.05-3-3.69a4.24,4.24,0,0,0-4.7.5l-.12.12h0a1.68,1.68,0,0,0-.76,1.41,2.05,2.05,0,0,0,.75,1.8l-.09.18a2,2,0,0,1-1.05-.69,3,3,0,0,1-.59-1.19,3.16,3.16,0,0,1,0-1.4,2.66,2.66,0,0,1,.79-1.3l-.12.12a4.71,4.71,0,0,1,3.11-2,6.31,6.31,0,0,1,3.6.41,6.63,6.63,0,0,1,2.83,2.23,5.33,5.33,0,0,1,1,3.56,5.42,5.42,0,0,1-1.49,3.25,7.06,7.06,0,0,1-2.9,1.82,7.15,7.15,0,0,1-3.34.31,5.44,5.44,0,0,1-3-1.5l-.11-.12v-.13l-.19-5.69Z"/><path class="cls-2" d="M550.82,385.33a4,4,0,0,0,3.85-.49,6.36,6.36,0,0,0,2.3-3.06,4.87,4.87,0,0,0-.24-3.6,4.06,4.06,0,0,0-2.65-2.17,12.07,12.07,0,0,0-1.88-.39,2,2,0,0,0-.71,0,.51.51,0,0,0-.21.09l-.34.24A5.64,5.64,0,0,0,549,378.7a7.6,7.6,0,0,0-.44,3.6A4,4,0,0,0,550.82,385.33Zm-.07.2a6,6,0,0,1-3.23-2.86,6.44,6.44,0,0,1-.51-4.57,6.16,6.16,0,0,1,2.82-3.86l.55-.3a2.49,2.49,0,0,1,.77-.22,3.9,3.9,0,0,1,1.35.07,13.21,13.21,0,0,1,2.14.65,6.27,6.27,0,0,1,2,1.23,5.31,5.31,0,0,1,1.32,2,6,6,0,0,1,0,4.5,6.24,6.24,0,0,1-3.06,3.08A5.4,5.4,0,0,1,550.75,385.53Z"/><path class="cls-2" d="M557.88,186a8.2,8.2,0,0,0-1-5.14A25.39,25.39,0,0,0,554.5,178a13.39,13.39,0,0,1-2.91-10c.82-6.57,6.85-11.79,13.41-12.69s13.26,2,18,6.68c3,3,5.33,7,4.94,11.13-.4,4.34-3.77,8-7.72,9.82s-8.43,2.18-12.79,2.25c-1.34,0-2.86.09-3.75,1.1a4.63,4.63,0,0,0-.88,2.21A90,90,0,0,0,561,201.68c-2,.55-4.18-.18-6.17-.91C539.14,195,556.85,196.34,557.88,186Z"/><path class="cls-2" d="M630.07,372.25a11.41,11.41,0,0,0,7.26-.07,37.67,37.67,0,0,0,4.49-2.46,18.49,18.49,0,0,1,14.38-1.36c8.73,2.81,14.27,12.37,13.8,21.52s-6.18,17.53-13.75,22.7c-4.8,3.27-10.83,5.45-16.41,3.83-5.8-1.67-9.88-7.2-11.36-13.05s-.78-12,.25-18c.32-1.84.62-3.92-.53-5.39a6.47,6.47,0,0,0-2.77-1.78,128,128,0,0,0-17.5-5.77c-.22-2.92,1.33-5.64,2.83-8.16C622.64,344.4,616.27,368.16,630.07,372.25Z"/><path class="cls-2" d="M415.36,262.53a8.28,8.28,0,0,0-4.88,1.93,26.58,26.58,0,0,0-2.38,2.81,13.39,13.39,0,0,1-9.35,4.65c-6.61.36-12.82-4.65-14.87-10.94s-.37-13.42,3.4-18.86c2.39-3.45,5.89-6.48,10.07-6.83,4.35-.37,8.52,2.3,11,5.86s3.64,7.9,4.48,12.18c.26,1.32.6,2.8,1.76,3.5a4.58,4.58,0,0,0,2.33.47,90.87,90.87,0,0,0,13.29-.63c.9,1.91.56,4.15.2,6.23C427.58,279.38,425.72,261.72,415.36,262.53Z"/><path class="cls-2" d="M482,408.74a5.34,5.34,0,0,0,.55,3.36A18.71,18.71,0,0,0,484,414a8.64,8.64,0,0,1,1.66,6.55c-.68,4.24-4.71,7.49-9,7.92a14.21,14.21,0,0,1-11.48-4.75c-1.85-2-3.29-4.62-2.94-7.32s2.63-5.08,5.23-6.18a20.21,20.21,0,0,1,8.33-1.16,3.21,3.21,0,0,0,2.46-.63,3,3,0,0,0,.62-1.41,59.76,59.76,0,0,0,1.43-8.51,6.8,6.8,0,0,1,4,.73C494.31,403.32,482.86,402.07,482,408.74Z"/><path class="cls-2" d="M623.67,241.47a5.41,5.41,0,0,0,1.22-3.18,17.25,17.25,0,0,0-.3-2.37,8.67,8.67,0,0,1,1.87-6.5c2.73-3.32,7.84-4.09,11.74-2.32a14.22,14.22,0,0,1,7.53,9.89c.6,2.65.51,5.65-1.15,7.81s-4.83,3.06-7.63,2.7a20.32,20.32,0,0,1-7.79-3.19,3.2,3.2,0,0,0-2.44-.7,3.12,3.12,0,0,0-1.24.9,59.26,59.26,0,0,0-5.52,6.64,6.8,6.8,0,0,1-3.07-2.64C610.27,239.93,619.52,246.78,623.67,241.47Z"/><path class="cls-2" d="M544.81,423.31a7.49,7.49,0,0,1-2.07,4.28,25.14,25.14,0,0,1-2.7,2,12.14,12.14,0,0,0-4.83,8.14c-.77,5.94,3.34,11.9,8.89,14.17s12.1,1.24,17.27-1.8c3.27-1.92,6.25-4.89,6.85-8.64.63-3.9-1.5-7.85-4.55-10.36s-6.9-3.83-10.71-4.87c-1.17-.33-2.49-.74-3-1.82a4.2,4.2,0,0,1-.27-2.14,83.09,83.09,0,0,1,1.47-12c-1.67-.95-3.71-.79-5.62-.6C530.41,411.13,546.25,414,544.81,423.31Z"/><path class="cls-3" d="M633.72,401.07a10.14,10.14,0,0,0,11,7.36,14.06,14.06,0,0,0,3.56-1.13,27.24,27.24,0,0,0,15.47-19.55c.58-3.12.47-6.7-1.72-9a9.38,9.38,0,0,0-4-2.29C642.64,371.58,630.17,386.4,633.72,401.07Z"/><path class="cls-3" d="M475,423.42c2.73-.77,4-4.52,2.45-6.93a5.76,5.76,0,0,0-7.53-1.68,5.25,5.25,0,0,0-2.65,3.74,3.93,3.93,0,0,0,2,4,5.15,5.15,0,0,0,1.62.61A38,38,0,0,0,475,423.42Z"/><path class="cls-2" d="M634.88,308.61c5.72,1.63,12.38,3.12,17.19-.38,2.69-2,4.24-5.19,6.88-7.23,4.1-3.18,10.28-2.77,14.54.18s6.76,8,7.61,13.09c1.34,8-1.39,16.92-8,21.6a10.61,10.61,0,0,1-6.07,2.21c-3.94,0-7.21-3.1-9.39-6.39s-3.81-7-6.7-9.71c-5.53-5.12-14.07-5-21.48-3.59"/><path class="cls-2" d="M480.84,196.92a5.4,5.4,0,0,0-3.11-1.39,19,19,0,0,0-2.38.17,8.66,8.66,0,0,1-6.39-2.22c-3.16-2.9-3.66-8-1.67-11.85a14.17,14.17,0,0,1,10.27-7c2.68-.46,5.68-.2,7.74,1.57s2.79,5,2.28,7.77a20.26,20.26,0,0,1-3.61,7.6,3.22,3.22,0,0,0-.83,2.4,3,3,0,0,0,.84,1.29,58.5,58.5,0,0,0,6.32,5.87,6.79,6.79,0,0,1-2.8,2.92C478.57,210.22,485.91,201.35,480.84,196.92Z"/><path class="cls-3" d="M472.43,183c-.87,2.71,1.59,5.8,4.43,5.86a5.76,5.76,0,0,0,5.54-5.37,5.24,5.24,0,0,0-1.66-4.27,3.94,3.94,0,0,0-4.42-.53,5,5,0,0,0-1.39,1A34.73,34.73,0,0,0,472.43,183Z"/><path class="cls-2" d="M185,137.52a63.87,63.87,0,0,1,11.85,6.18c40.21,26.48,44.35,94.51-1.11,118.86-5.42,2.9-16.47,6.26-22.52,7.34-25.18,4.48-52.9-5.21-67.58-27.48-14.16-21.47-17.2-50.8-4.84-73.78a58.43,58.43,0,0,1,14.7-18,67.63,67.63,0,0,1,8.82-5.88C142.8,134.23,164.56,129.56,185,137.52Z"/><path class="cls-3" d="M183.11,141.87a60,60,0,0,1,11.18,5.83c38,24.94,41.9,89.11-1,112.11-5.11,2.75-15.53,5.93-21.24,6.95-23.74,4.24-49.9-4.88-63.77-25.88C95,220.64,92.06,193,103.7,171.29a55,55,0,0,1,13.86-17,63.26,63.26,0,0,1,8.31-5.55C143.33,138.8,163.85,134.38,183.11,141.87Z"/><path class="cls-2" d="M184.84,195a10.2,10.2,0,0,0-3.44-1.83,6.13,6.13,0,0,0-3.8.36,12.54,12.54,0,0,0-5.76,5,10.83,10.83,0,0,0-1.56,7.3,10.4,10.4,0,0,0,3.56,6.46c1.9,1.57,4.53,2.39,6.78,1.4a10.43,10.43,0,0,0,5.51-4.7,13.43,13.43,0,0,0,2-7.21A8.73,8.73,0,0,0,184.84,195Zm.08-.11a10.06,10.06,0,0,1,3.86,6.81,12.68,12.68,0,0,1-1.51,7.92l-.53.9c-.2.28-.43.55-.64.82a10.78,10.78,0,0,1-1.43,1.52,5.67,5.67,0,0,1-.83.63,7.43,7.43,0,0,1-.88.58A10.06,10.06,0,0,1,181,215l-1,.29a5.79,5.79,0,0,1-1.09.13,7.23,7.23,0,0,1-2.13-.25,9.27,9.27,0,0,1-3.65-2,11.32,11.32,0,0,1-3.73-7.14,11.56,11.56,0,0,1,1.86-7.77,12.52,12.52,0,0,1,6.21-4.89,6.48,6.48,0,0,1,3.94-.23A10.43,10.43,0,0,1,184.92,194.93Z"/><path class="cls-2" d="M152,217a10.2,10.2,0,0,0-3.44-1.83,6.12,6.12,0,0,0-3.8.36,12.54,12.54,0,0,0-5.76,5,10.84,10.84,0,0,0-1.57,7.3,10.42,10.42,0,0,0,3.57,6.46c1.9,1.57,4.53,2.39,6.78,1.4a10.43,10.43,0,0,0,5.51-4.7,13.43,13.43,0,0,0,2-7.21A8.76,8.76,0,0,0,152,217Zm.08-.11a10.06,10.06,0,0,1,3.86,6.81,12.73,12.73,0,0,1-1.51,7.93l-.53.89c-.2.28-.43.55-.64.82a12.08,12.08,0,0,1-1.43,1.52,5.67,5.67,0,0,1-.83.63,8.35,8.35,0,0,1-.88.58,10.34,10.34,0,0,1-1.93.84l-1,.29a5.69,5.69,0,0,1-1.08.13,7.19,7.19,0,0,1-2.13-.25,9.2,9.2,0,0,1-3.65-2,11.32,11.32,0,0,1-3.73-7.14,11.51,11.51,0,0,1,1.86-7.77,12.47,12.47,0,0,1,6.21-4.89,6.48,6.48,0,0,1,3.94-.23A10.43,10.43,0,0,1,152.05,216.91Z"/><path class="cls-2" d="M146.76,198a15,15,0,0,1-4.85,2.45,22.2,22.2,0,0,1-5.36,1,11.56,11.56,0,0,1-5.45-.65,14.1,14.1,0,0,1-4.39-3.34,16.49,16.49,0,0,1-4.25-10.07,14,14,0,0,1,3.91-10.24,12.72,12.72,0,0,1,4.7-3.13,12.85,12.85,0,0,1,5.63-.69,15.63,15.63,0,0,1,10,4.89,17.71,17.71,0,0,1,3.08,4.69,16.17,16.17,0,0,1,1.3,5.42A11.11,11.11,0,0,1,146.76,198Zm-.08-.1a10.85,10.85,0,0,0,3.14-4.3,10.62,10.62,0,0,0,.53-5.24,16.59,16.59,0,0,0-4.63-9.26,16.78,16.78,0,0,0-1.95-1.72,16.5,16.5,0,0,0-2.23-1.31,15.07,15.07,0,0,0-5-1.47,11.73,11.73,0,0,0-5.1.5,11.45,11.45,0,0,0-4.34,2.76,12.94,12.94,0,0,0-3.81,9.47,15.62,15.62,0,0,0,3.89,9.66,13.6,13.6,0,0,0,4.09,3.35,11,11,0,0,0,5.23.8,21.44,21.44,0,0,0,5.34-.81A15.15,15.15,0,0,0,146.68,197.91Z"/><path class="cls-2" d="M200.73,226.22a2,2,0,0,1-1.17,2.36,1.84,1.84,0,0,1-1.58-.09,2.23,2.23,0,0,1-1-1.26,2.46,2.46,0,0,1,0-1.69,1.88,1.88,0,0,1,1.46-1.09,2.21,2.21,0,0,1,1.6.42,1.53,1.53,0,0,1,.66,1.35l-.13,0a1.76,1.76,0,0,0-1.87-.52,1.28,1.28,0,0,0-.56.4,1.09,1.09,0,0,0-.17.82,1.11,1.11,0,0,0,1.35,1,1.61,1.61,0,0,0,1.25-1.7Z"/><path class="cls-2" d="M178.94,242.15l-2-.84.17,0a1.87,1.87,0,0,0-1.12,1.52,1.51,1.51,0,0,0,.59,1.56,1.38,1.38,0,0,0,1.47-.23,1.48,1.48,0,0,0,.77-1.29l0-.11c.12-.17-.25-.74-.8-.64L178,242a1,1,0,0,1,1-.23,1.18,1.18,0,0,1,.82.9l0-.11a2,2,0,0,1,0,1.54,2.51,2.51,0,0,1-.93,1.17,2.41,2.41,0,0,1-2.88,0,2.47,2.47,0,0,1-.74-2.61,2.38,2.38,0,0,1,1.78-1.81l.11,0,.07,0L179,242Z"/><path class="cls-2" d="M170.57,152.29l-3.25-1.54.17,0a3.32,3.32,0,0,0-2.12,2.66,2.92,2.92,0,0,0,1,3,3.11,3.11,0,0,0,4.3-3l0-.11h0a1.3,1.3,0,0,0-1.7-1.09l-.07-.11a1.53,1.53,0,0,1,1.56-.23,1.76,1.76,0,0,1,1.16,1.35l0-.11a3,3,0,0,1,0,2.32,4,4,0,0,1-1.44,1.77A4.21,4.21,0,0,1,168,158a3.31,3.31,0,0,1-2.22-.68,3.35,3.35,0,0,1-1.22-1.9,4.46,4.46,0,0,1,0-2.15,3.84,3.84,0,0,1,2.79-3l.1,0,.07,0,3.08,1.83Z"/><path class="cls-2" d="M109.08,188.09a2.55,2.55,0,0,0-1,2.21,3.9,3.9,0,0,0,.84,2.26,3.1,3.1,0,0,0,2,1.1,2.56,2.56,0,0,0,2.06-.67,8.53,8.53,0,0,0,.84-.86,1.09,1.09,0,0,0,.23-.39.39.39,0,0,0,0-.14v-.26a3.52,3.52,0,0,0-.79-2,4.74,4.74,0,0,0-1.76-1.45A2.5,2.5,0,0,0,109.08,188.09ZM109,188a3.8,3.8,0,0,1,2.61-.74,4.08,4.08,0,0,1,2.6,1.29,3.92,3.92,0,0,1,1.09,2.81l0,.39a1.87,1.87,0,0,1-.15.49,2.73,2.73,0,0,1-.5.69,9.43,9.43,0,0,1-1.07.92,3.55,3.55,0,0,1-2.84.68A3.75,3.75,0,0,1,109,188Z"/><path class="cls-2" d="M212.5,259.66a5.27,5.27,0,0,0,3.08,1.2,18.42,18.42,0,0,0,2.31-.28,8.44,8.44,0,0,1,6.31,1.86c3.2,2.67,3.93,7.65,2.17,11.44a13.83,13.83,0,0,1-9.65,7.25c-2.59.57-5.51.47-7.59-1.16s-2.95-4.72-2.58-7.44A19.73,19.73,0,0,1,209.7,265a3.07,3.07,0,0,0,.69-2.37,2.92,2.92,0,0,0-.87-1.22,58,58,0,0,0-6.41-5.4,6.6,6.6,0,0,1,2.58-3C214.08,246.63,207.36,255.59,212.5,259.66Z"/><path class="cls-2" d="M89.07,234.61a7.21,7.21,0,0,0-2.43,3.88,22.88,22.88,0,0,0-.23,3.21,11.67,11.67,0,0,1-4.17,8.11c-4.46,3.67-11.42,3.36-16.12,0s-7.2-9.25-7.37-15c-.1-3.66.8-7.61,3.55-10s7.18-2.79,10.79-1.59,6.65,3.68,9.46,6.25c.86.79,1.87,1.66,3,1.55a4,4,0,0,0,1.89-.87,79.12,79.12,0,0,0,9-7.32c1.63.87,2.55,2.63,3.37,4.28C106.38,240.14,95.93,228.68,89.07,234.61Z"/><path class="cls-2" d="M220.36,158a5.18,5.18,0,0,0,.63-3.24,16.34,16.34,0,0,0-.68-2.23A8.44,8.44,0,0,1,221,146c2.05-3.63,6.83-5.22,10.86-4.17a13.83,13.83,0,0,1,8.86,8.22c1,2.44,1.43,5.33.2,7.67s-4.12,3.74-6.87,3.86a19.58,19.58,0,0,1-8-1.76,3.09,3.09,0,0,0-2.45-.26,3,3,0,0,0-1,1.07,59.5,59.5,0,0,0-4.18,7.27,6.62,6.62,0,0,1-3.38-2C207.26,158.71,217.27,163.74,220.36,158Z"/><path class="cls-2" d="M120.09,143.57a3.41,3.41,0,0,0-2-.85,10.85,10.85,0,0,0-1.5.13,5.46,5.46,0,0,1-4.05-1.36,6.38,6.38,0,0,1-1.15-7.45,9,9,0,0,1,6.43-4.48,5.92,5.92,0,0,1,4.89.93,5.24,5.24,0,0,1,1.5,4.88,12.9,12.9,0,0,1-2.22,4.82,2,2,0,0,0-.5,1.51,1.84,1.84,0,0,0,.54.81,35.69,35.69,0,0,0,4,3.65,4.29,4.29,0,0,1-1.74,1.87C118.76,152,123.32,146.32,120.09,143.57Z"/><path class="cls-2" d="M160.67,275.71a3.37,3.37,0,0,0,1.27,1.72,11.3,11.3,0,0,0,1.36.65,5.48,5.48,0,0,1,2.82,3.21,6.39,6.39,0,0,1-2.77,7,9,9,0,0,1-7.81.63,5.94,5.94,0,0,1-3.75-3.26,5.27,5.27,0,0,1,1.16-5,12.8,12.8,0,0,1,4.34-3c.5-.24,1.05-.53,1.2-1.06a1.88,1.88,0,0,0-.05-1,36.39,36.39,0,0,0-1.65-5.19,4.39,4.39,0,0,1,2.45-.73C166.05,269.12,159.26,271.7,160.67,275.71Z"/><path class="cls-2" d="M91,172a4.76,4.76,0,0,1-1.57-2.55,16.38,16.38,0,0,1-.12-2.11A7.66,7.66,0,0,0,86.61,162c-2.9-2.43-7.46-2.27-10.55-.1a12.49,12.49,0,0,0-4.92,9.78c-.1,2.39.46,5,2.25,6.58a7.34,7.34,0,0,0,7,1.11,18,18,0,0,0,6.23-4,2.87,2.87,0,0,1,2-1,2.74,2.74,0,0,1,1.23.58,52.36,52.36,0,0,1,5.85,4.86A5.93,5.93,0,0,0,98,177C102.33,168.48,95.42,175.91,91,172Z"/><path class="cls-3" d="M72.53,226.74a6.4,6.4,0,0,0-7.66,3.35,9.29,9.29,0,0,0-.61,2.27,17.16,17.16,0,0,0,5.11,14.86c1.46,1.37,3.4,2.54,5.37,2.16a6,6,0,0,0,2.6-1.37C85.15,241.51,81.53,229.85,72.53,226.74Z"/><path class="cls-3" d="M114.67,134.87a3,3,0,0,0,2.85,3.66A3.64,3.64,0,0,0,121,135.1a3.31,3.31,0,0,0-1.08-2.68,2.49,2.49,0,0,0-2.79-.3,3.14,3.14,0,0,0-.87.65A22.83,22.83,0,0,0,114.67,134.87Z"/><path class="cls-2" d="M121.21,258.82c-2.81,2.47-5.87,5.51-5.64,9.25.13,2.1,1.31,4,1.49,6.11.3,3.26-2,6.4-5,7.66a12.41,12.41,0,0,1-9.54-.42c-4.69-2-8.5-6.49-8.74-11.59a6.68,6.68,0,0,1,.89-4c1.35-2.09,4.1-2.77,6.59-2.81s5,.37,7.43-.26c4.6-1.19,7.43-5.77,9.21-10.18"/><path class="cls-2" d="M232.91,215a3.36,3.36,0,0,0,1.79-1.17,11.38,11.38,0,0,0,.72-1.33,5.47,5.47,0,0,1,3.36-2.63,6.36,6.36,0,0,1,6.86,3.14,9,9,0,0,1,.21,7.83,5.92,5.92,0,0,1-3.47,3.57,5.23,5.23,0,0,1-4.9-1.43,12.79,12.79,0,0,1-2.8-4.5,2.07,2.07,0,0,0-1-1.26,1.88,1.88,0,0,0-1,0,36.94,36.94,0,0,0-5.26,1.36,4.3,4.3,0,0,1-.6-2.48C226.62,209.31,228.83,216.23,232.91,215Z"/><path class="cls-3" d="M243.16,215.31a3,3,0,0,0-4.63.36,3.66,3.66,0,0,0,1,4.77,3.32,3.32,0,0,0,2.83.57,2.49,2.49,0,0,0,1.79-2.17,3,3,0,0,0-.07-1.08A21.06,21.06,0,0,0,243.16,215.31Z"/><path class="cls-4" d="M698.42,101.16a34,34,0,0,1,6.73-1.84c24.82-4.13,50.56,20.47,41.79,46a51.1,51.1,0,0,1-6,10.81c-8.06,10.66-22.13,16.79-35.67,13.47-13-3.2-24.63-13.36-28-26.56a30.19,30.19,0,0,1-.75-12.11,34.38,34.38,0,0,1,1.29-5.39C681.09,114.88,687.77,105.36,698.42,101.16Z"/><path class="cls-3" d="M699.25,103.49a31.11,31.11,0,0,1,6.35-1.74C729,97.84,753.31,121,745.05,145.06a47.89,47.89,0,0,1-5.67,10.21c-7.59,10.06-20.86,15.85-33.63,12.73-12.32-3-23.25-12.59-26.49-25a28.58,28.58,0,0,1-.71-11.42,33,33,0,0,1,1.21-5.09C682.91,116.44,689.21,107.46,699.25,103.49Z"/><path class="cls-4" d="M718.8,123.25a5.33,5.33,0,0,0-2,.52,3.16,3.16,0,0,0-1.33,1.49,6.41,6.41,0,0,0-.44,4,5.66,5.66,0,0,0,2,3.36,5.47,5.47,0,0,0,3.66,1.21,3.48,3.48,0,0,0,3.1-1.87,5.47,5.47,0,0,0,.44-3.76,7,7,0,0,0-1.81-3.46A4.63,4.63,0,0,0,718.8,123.25Zm0-.07a5.21,5.21,0,0,1,3.89,1.24,6.74,6.74,0,0,1,2.24,3.57,5.8,5.8,0,0,1-.51,4.24,3.54,3.54,0,0,1-1.56,1.57,4.92,4.92,0,0,1-2.11.53,6,6,0,0,1-4-1.41,6.1,6.1,0,0,1-2-3.64,6.66,6.66,0,0,1,.65-4.08,3.41,3.41,0,0,1,1.42-1.49A5.6,5.6,0,0,1,718.79,123.18Z"/><path class="cls-4" d="M714,143.35a5.38,5.38,0,0,0-2,.52,3.14,3.14,0,0,0-1.32,1.49,6.33,6.33,0,0,0-.44,3.95,5.69,5.69,0,0,0,2,3.36,5.39,5.39,0,0,0,3.66,1.2A3.48,3.48,0,0,0,719,152a5.45,5.45,0,0,0,.44-3.75,6.89,6.89,0,0,0-1.82-3.46A4.61,4.61,0,0,0,714,143.35Zm0-.07a5.22,5.22,0,0,1,3.89,1.24,6.74,6.74,0,0,1,2.24,3.57,5.75,5.75,0,0,1-.52,4.24,3.49,3.49,0,0,1-1.56,1.57,4.7,4.7,0,0,1-2.11.52,5.84,5.84,0,0,1-4-1.41,6,6,0,0,1-2.05-3.64,6.68,6.68,0,0,1,.65-4.08,3.39,3.39,0,0,1,1.42-1.48A5.35,5.35,0,0,1,714,143.28Z"/><path class="cls-4" d="M705.26,137.91a9.82,9.82,0,0,1-2.71,4.94,6,6,0,0,1-2.31,1.69,7.34,7.34,0,0,1-2.87.27,8.52,8.52,0,0,1-5.21-2.35,7.25,7.25,0,0,1-2.13-5.31,6.4,6.4,0,0,1,2.6-5.13,8.4,8.4,0,0,1,5.56-1.67,9.26,9.26,0,0,1,2.84.71,8.64,8.64,0,0,1,2.43,1.61A5.84,5.84,0,0,1,705.26,137.91Zm-.07,0a5.63,5.63,0,0,0-.32-2.76,5.71,5.71,0,0,0-1.66-2.2,8.65,8.65,0,0,0-5.06-1.9,7.74,7.74,0,0,0-5.11,1.52,6.23,6.23,0,0,0-1.78,2,6.12,6.12,0,0,0-.68,2.6,6.75,6.75,0,0,0,1.9,5,8.2,8.2,0,0,0,4.92,2.32,6.93,6.93,0,0,0,2.76-.17,5.79,5.79,0,0,0,2.29-1.55A9,9,0,0,0,705.19,137.9Z"/><path class="cls-4" d="M736,129.56a1,1,0,0,1,.39,1.32,1,1,0,0,1-.64.53,1.19,1.19,0,0,1-.83-.13,1.24,1.24,0,0,1-.59-.66,1,1,0,0,1,.17-.94,1,1,0,0,1,1.5-.12l0,.06a.9.9,0,0,0-.9.47.55.55,0,0,0,.15.72.58.58,0,0,0,.88-.09.84.84,0,0,0-.13-1.1Z"/><path class="cls-4" d="M733.26,143.4l-1,.37.07-.05a1,1,0,0,0,.11,1,.78.78,0,0,0,.78.39.71.71,0,0,0,.48-.61.78.78,0,0,0-.16-.76l0,0c0-.11-.36-.19-.54,0l-.06,0a.58.58,0,0,1,.93-.38l0,0a1.17,1.17,0,0,1,.63,1.36,1.29,1.29,0,0,1-1.11,1,1.31,1.31,0,0,1-1.21-.74,1.25,1.25,0,0,1,0-1.33l0-.05h0l1.1-.2Z"/><path class="cls-4" d="M698.14,111.93l-1.79.57.08,0a1.73,1.73,0,0,0,.13,1.77A1.5,1.5,0,0,0,698,115a1.41,1.41,0,0,0,1-1.17,1.43,1.43,0,0,0-.44-1.5l0,0h0a.67.67,0,0,0-1,.19l-.06,0a.91.91,0,0,1,1.44-.54l0,0a1.56,1.56,0,0,1,.82.89,2.11,2.11,0,0,1,.07,1.19,1.93,1.93,0,0,1-1.65,1.58,2.17,2.17,0,0,1-1.88-3.25l0,0h0l1.84-.39Z"/><path class="cls-4" d="M687.29,147.49a1.33,1.33,0,0,0,.39,1.22,2,2,0,0,0,1.12.57,1.46,1.46,0,0,0,1.71-1.27,4.44,4.44,0,0,0,0-.63.72.72,0,0,0,0-.24.21.21,0,0,0,0-.06l-.1-.09a1.74,1.74,0,0,0-1-.47,2.42,2.42,0,0,0-1.19.07A1.3,1.3,0,0,0,687.29,147.49Zm-.06,0a1.93,1.93,0,0,1,.74-1.21,2.12,2.12,0,0,1,1.45-.44,2.09,2.09,0,0,1,1.41.69l.13.17a.57.57,0,0,1,.12.23,1.51,1.51,0,0,1,.06.45,6.06,6.06,0,0,1-.09.73,1.87,1.87,0,0,1-.85,1.27,2,2,0,0,1-1.46.25A2,2,0,0,1,687.23,147.48Z"/><path class="cls-4" d="M752.34,138.2a2.76,2.76,0,0,0,1.61-.64,11.59,11.59,0,0,0,.79-.92,4.37,4.37,0,0,1,3.08-1.53,5.13,5.13,0,0,1,4.89,3.61,7.24,7.24,0,0,1-1.12,6.21,4.83,4.83,0,0,1-3.32,2.25,4.23,4.23,0,0,1-3.64-1.94,10.42,10.42,0,0,1-1.47-4,1.62,1.62,0,0,0-.57-1.15,1.47,1.47,0,0,0-.77-.16,30.52,30.52,0,0,0-4.38.2,3.4,3.4,0,0,1-.06-2.05C748.32,132.64,748.93,138.46,752.34,138.2Z"/><path class="cls-4" d="M696.14,172.43a3.76,3.76,0,0,0,.45,2.35,11.91,11.91,0,0,0,1.06,1.31,6.11,6.11,0,0,1,1.27,4.59,7.11,7.11,0,0,1-6.17,5.72,10,10,0,0,1-8.16-3.14,6.61,6.61,0,0,1-2.2-5.1,5.87,5.87,0,0,1,3.57-4.44,14.28,14.28,0,0,1,5.84-1,2.22,2.22,0,0,0,1.72-.49,2.08,2.08,0,0,0,.42-1,42,42,0,0,0,.85-6,4.78,4.78,0,0,1,2.81.45C704.74,168.4,696.67,167.72,696.14,172.43Z"/><path class="cls-4" d="M719.24,96.43a2.73,2.73,0,0,0-.91-1.47,8.44,8.44,0,0,0-1.05-.61,4.38,4.38,0,0,1-2-2.76,5.14,5.14,0,0,1,2.69-5.46,7.2,7.2,0,0,1,6.31,0A4.78,4.78,0,0,1,727,89a4.22,4.22,0,0,1-1.26,3.91,10.16,10.16,0,0,1-3.69,2.16,1.62,1.62,0,0,0-1,.78,1.47,1.47,0,0,0,0,.78,30,30,0,0,0,1,4.27,3.46,3.46,0,0,1-2,.43C714.49,101.37,720.11,99.74,719.24,96.43Z"/><path class="cls-4" d="M675.7,126.52a1.78,1.78,0,0,0-1.06.38,4.94,4.94,0,0,0-.53.58,2.88,2.88,0,0,1-2,.92,3.35,3.35,0,0,1-3.09-2.46,4.69,4.69,0,0,1,.88-4,3.05,3.05,0,0,1,2.2-1.38,2.72,2.72,0,0,1,2.31,1.33,6.74,6.74,0,0,1,.86,2.64,1,1,0,0,0,.35.76,1,1,0,0,0,.49.12,19.22,19.22,0,0,0,2.84,0,2.16,2.16,0,0,1,0,1.33C678.18,130.21,677.92,126.43,675.7,126.52Z"/><path class="cls-4" d="M738.18,162.75a1.76,1.76,0,0,0,1.1.21,5,5,0,0,0,.75-.23,2.82,2.82,0,0,1,2.22.23,3.33,3.33,0,0,1,1.43,3.67,4.66,4.66,0,0,1-2.77,3,3.09,3.09,0,0,1-2.59.09,2.75,2.75,0,0,1-1.33-2.32,6.75,6.75,0,0,1,.59-2.71,1.06,1.06,0,0,0,.08-.83,1,1,0,0,0-.36-.36,21.47,21.47,0,0,0-2.47-1.4,2.23,2.23,0,0,1,.67-1.15C737.9,158.32,736.22,161.72,738.18,162.75Z"/><path class="cls-4" d="M674.63,147.75a2.44,2.44,0,0,1-1.51-.42,8.13,8.13,0,0,1-.79-.76,4,4,0,0,0-2.92-1.1,4.67,4.67,0,0,0-4.08,3.71,6.51,6.51,0,0,0,1.59,5.49,4.32,4.32,0,0,0,3.2,1.73,3.84,3.84,0,0,0,3.09-2.08,9.34,9.34,0,0,0,1-3.76,1.48,1.48,0,0,1,.41-1.09,1.36,1.36,0,0,1,.68-.21,26.35,26.35,0,0,1,4-.22,3.13,3.13,0,0,0-.13-1.86C677.74,142.37,677.73,147.68,674.63,147.75Z"/><path class="cls-3" d="M687,175.29a3.34,3.34,0,0,0-1.75,4,5,5,0,0,0,.58,1.09,9,9,0,0,0,7.23,3.88,3.43,3.43,0,0,0,2.83-1.08,3.24,3.24,0,0,0,.51-1.45C697.09,176.47,691.56,173.28,687,175.29Z"/><path class="cls-3" d="M670.53,125.11a1.6,1.6,0,0,0,2.4.39A1.91,1.91,0,0,0,673,123a1.71,1.71,0,0,0-1.37-.64,1.27,1.27,0,0,0-1.17.87,1.58,1.58,0,0,0-.1.56A12.28,12.28,0,0,0,670.53,125.11Z"/><path class="cls-4" d="M717.06,170.29c-.2,2-.29,4.2,1.12,5.55.8.76,1.93,1.08,2.75,1.81a4.19,4.19,0,0,1,.78,4.73,6.52,6.52,0,0,1-3.8,3.23,7.33,7.33,0,0,1-7.47-1.34,3.49,3.49,0,0,1-1.07-1.84A4.08,4.08,0,0,1,710.9,179a16.59,16.59,0,0,0,2.76-2.73c1.34-2.09.79-4.85-.09-7.18"/><path class="cls-4" d="M744.32,113.85a1.76,1.76,0,0,0,.27-1.09,6.49,6.49,0,0,0-.19-.76,2.86,2.86,0,0,1,.35-2.21,3.34,3.34,0,0,1,3.74-1.23,4.7,4.7,0,0,1,2.86,2.93,3.07,3.07,0,0,1-.06,2.6,2.71,2.71,0,0,1-2.38,1.19,6.55,6.55,0,0,1-2.68-.73,1.05,1.05,0,0,0-.82-.13,1,1,0,0,0-.37.35,19.44,19.44,0,0,0-1.54,2.39,2.28,2.28,0,0,1-1.11-.74C739.88,113.88,743.18,115.75,744.32,113.85Z"/><path class="cls-3" d="M748.34,110.31a1.59,1.59,0,0,0-1.64,1.78,1.89,1.89,0,0,0,2.06,1.48,1.71,1.71,0,0,0,1.29-.78,1.3,1.3,0,0,0-.08-1.47,2.16,2.16,0,0,0-.41-.39A10.74,10.74,0,0,0,748.34,110.31Z"/><path class="cls-4" d="M272.42,357.16a34,34,0,0,1,6.73-1.84c24.82-4.13,50.56,20.47,41.79,45.95a51.1,51.1,0,0,1-6,10.81c-8.06,10.66-22.13,16.79-35.67,13.47-13.05-3.2-24.63-13.36-28.05-26.56a30.19,30.19,0,0,1-.75-12.11,34.38,34.38,0,0,1,1.29-5.39C255.09,370.88,261.77,361.36,272.42,357.16Z"/><path class="cls-3" d="M273.25,359.49a31.11,31.11,0,0,1,6.35-1.74c23.41-3.91,47.71,19.27,39.45,43.31a47.89,47.89,0,0,1-5.67,10.21c-7.59,10.06-20.86,15.85-33.63,12.73-12.32-3-23.25-12.59-26.49-25a28.58,28.58,0,0,1-.71-11.42,33,33,0,0,1,1.21-5.09C256.91,372.44,263.21,363.46,273.25,359.49Z"/><path class="cls-4" d="M292.8,379.25a5.33,5.33,0,0,0-2,.52,3.16,3.16,0,0,0-1.33,1.49,6.41,6.41,0,0,0-.44,3.95,5.66,5.66,0,0,0,2,3.36,5.47,5.47,0,0,0,3.66,1.21,3.48,3.48,0,0,0,3.1-1.87,5.47,5.47,0,0,0,.44-3.76,7,7,0,0,0-1.81-3.46A4.63,4.63,0,0,0,292.8,379.25Zm0-.07a5.21,5.21,0,0,1,3.89,1.24,6.74,6.74,0,0,1,2.24,3.57,5.8,5.8,0,0,1-.51,4.24,3.54,3.54,0,0,1-1.56,1.57,4.92,4.92,0,0,1-2.11.53,6,6,0,0,1-4-1.41,6.1,6.1,0,0,1-2-3.64,6.66,6.66,0,0,1,.65-4.08,3.41,3.41,0,0,1,1.42-1.49A5.6,5.6,0,0,1,292.79,379.18Z"/><path class="cls-4" d="M288,399.35a5.38,5.38,0,0,0-2,.52,3.14,3.14,0,0,0-1.32,1.49,6.33,6.33,0,0,0-.44,3.95,5.69,5.69,0,0,0,2,3.36,5.39,5.39,0,0,0,3.66,1.2A3.48,3.48,0,0,0,293,408a5.45,5.45,0,0,0,.44-3.75,6.89,6.89,0,0,0-1.82-3.46A4.61,4.61,0,0,0,288,399.35Zm0-.07a5.22,5.22,0,0,1,3.89,1.24,6.74,6.74,0,0,1,2.24,3.57,5.75,5.75,0,0,1-.52,4.24,3.49,3.49,0,0,1-1.56,1.57,4.7,4.7,0,0,1-2.11.52,5.84,5.84,0,0,1-4-1.41,6,6,0,0,1-2.05-3.64,6.68,6.68,0,0,1,.65-4.08,3.39,3.39,0,0,1,1.42-1.48A5.35,5.35,0,0,1,288,399.28Z"/><path class="cls-4" d="M279.26,393.91a9.82,9.82,0,0,1-2.71,4.94,6,6,0,0,1-2.31,1.69,7.34,7.34,0,0,1-2.87.27,8.52,8.52,0,0,1-5.21-2.35,7.25,7.25,0,0,1-2.13-5.31,6.4,6.4,0,0,1,2.6-5.13,8.4,8.4,0,0,1,5.56-1.67,9.26,9.26,0,0,1,2.84.71,8.64,8.64,0,0,1,2.43,1.61A5.84,5.84,0,0,1,279.26,393.91Zm-.07,0a5.63,5.63,0,0,0-.32-2.76,5.71,5.71,0,0,0-1.66-2.2,8.65,8.65,0,0,0-5.06-1.9,7.74,7.74,0,0,0-5.11,1.52,6.23,6.23,0,0,0-1.78,2,6.12,6.12,0,0,0-.68,2.6,6.75,6.75,0,0,0,1.9,5,8.2,8.2,0,0,0,4.92,2.32,6.93,6.93,0,0,0,2.76-.17,5.79,5.79,0,0,0,2.29-1.55A9,9,0,0,0,279.19,393.9Z"/><path class="cls-4" d="M310,385.56a1,1,0,0,1,.39,1.32,1,1,0,0,1-.64.53,1.19,1.19,0,0,1-.83-.13,1.24,1.24,0,0,1-.59-.66,1,1,0,0,1,.17-.94,1,1,0,0,1,1.5-.12l0,.06a.9.9,0,0,0-.9.47.55.55,0,0,0,.15.72.58.58,0,0,0,.88-.09.84.84,0,0,0-.13-1.1Z"/><path class="cls-4" d="M307.26,399.4l-1,.37.07,0a1,1,0,0,0,.11,1,.78.78,0,0,0,.78.39.71.71,0,0,0,.48-.61.78.78,0,0,0-.16-.76l-.05,0c0-.11-.36-.19-.54,0l-.06,0a.58.58,0,0,1,.93-.38l0,0a1.17,1.17,0,0,1,.63,1.36,1.29,1.29,0,0,1-1.11,1,1.31,1.31,0,0,1-1.21-.74,1.25,1.25,0,0,1,0-1.33l0,0h0l1.1-.2Z"/><path class="cls-4" d="M272.14,367.93l-1.79.57.08-.05a1.73,1.73,0,0,0,.13,1.77A1.5,1.5,0,0,0,272,371a1.41,1.41,0,0,0,1-1.17,1.43,1.43,0,0,0-.44-1.5l-.05,0h0a.67.67,0,0,0-1,.19l-.06,0a.91.91,0,0,1,1.44-.54l-.05,0a1.56,1.56,0,0,1,.82.89,2.11,2.11,0,0,1,.07,1.19,1.93,1.93,0,0,1-1.65,1.58,2.17,2.17,0,0,1-1.88-3.25l0,0h0l1.84-.39Z"/><path class="cls-4" d="M261.29,403.49a1.33,1.33,0,0,0,.39,1.22,2,2,0,0,0,1.12.57,1.46,1.46,0,0,0,1.71-1.27,4.44,4.44,0,0,0,0-.63.72.72,0,0,0,0-.24l0-.06-.1-.09a1.74,1.74,0,0,0-1-.47,2.42,2.42,0,0,0-1.19.07A1.3,1.3,0,0,0,261.29,403.49Zm-.06,0a1.93,1.93,0,0,1,.74-1.21,2.12,2.12,0,0,1,1.45-.44,2.09,2.09,0,0,1,1.41.69l.13.17a.57.57,0,0,1,.12.23,1.51,1.51,0,0,1,.06.45,6.06,6.06,0,0,1-.09.73,1.87,1.87,0,0,1-.85,1.27,2,2,0,0,1-1.46.25A2,2,0,0,1,261.23,403.48Z"/><path class="cls-4" d="M326.34,394.2a2.76,2.76,0,0,0,1.61-.64,11.59,11.59,0,0,0,.79-.92,4.37,4.37,0,0,1,3.08-1.53,5.13,5.13,0,0,1,4.89,3.61,7.24,7.24,0,0,1-1.12,6.21,4.83,4.83,0,0,1-3.32,2.25,4.23,4.23,0,0,1-3.64-1.94,10.42,10.42,0,0,1-1.47-4,1.62,1.62,0,0,0-.57-1.15,1.47,1.47,0,0,0-.77-.16,30.52,30.52,0,0,0-4.38.2,3.4,3.4,0,0,1-.06-2.05C322.32,388.64,322.93,394.46,326.34,394.2Z"/><path class="cls-4" d="M270.14,428.43a3.76,3.76,0,0,0,.45,2.35,11.91,11.91,0,0,0,1.06,1.31,6.11,6.11,0,0,1,1.27,4.59,7.11,7.11,0,0,1-6.17,5.72,10,10,0,0,1-8.16-3.14,6.61,6.61,0,0,1-2.2-5.1,5.87,5.87,0,0,1,3.57-4.44,14.28,14.28,0,0,1,5.84-1,2.22,2.22,0,0,0,1.72-.49,2.08,2.08,0,0,0,.42-1,42,42,0,0,0,.85-6,4.78,4.78,0,0,1,2.81.45C278.74,424.4,270.67,423.72,270.14,428.43Z"/><path class="cls-4" d="M293.24,352.43a2.73,2.73,0,0,0-.91-1.47,8.44,8.44,0,0,0-1.05-.61,4.38,4.38,0,0,1-2-2.76,5.14,5.14,0,0,1,2.69-5.46,7.2,7.2,0,0,1,6.31,0A4.78,4.78,0,0,1,301,345a4.22,4.22,0,0,1-1.26,3.91,10.16,10.16,0,0,1-3.69,2.16,1.62,1.62,0,0,0-1,.78,1.47,1.47,0,0,0,0,.78,30,30,0,0,0,1,4.27,3.46,3.46,0,0,1-2,.43C288.49,357.37,294.11,355.74,293.24,352.43Z"/><path class="cls-4" d="M249.7,382.52a1.78,1.78,0,0,0-1.06.38,4.94,4.94,0,0,0-.53.58,2.88,2.88,0,0,1-2,.92,3.35,3.35,0,0,1-3.09-2.46,4.69,4.69,0,0,1,.88-4,3.05,3.05,0,0,1,2.2-1.38,2.72,2.72,0,0,1,2.31,1.33,6.74,6.74,0,0,1,.86,2.64,1,1,0,0,0,.35.76,1,1,0,0,0,.49.12,19.22,19.22,0,0,0,2.84,0,2.16,2.16,0,0,1,0,1.33C252.18,386.21,251.92,382.43,249.7,382.52Z"/><path class="cls-4" d="M312.18,418.75a1.76,1.76,0,0,0,1.1.21,5,5,0,0,0,.75-.23,2.82,2.82,0,0,1,2.22.23,3.33,3.33,0,0,1,1.43,3.67,4.66,4.66,0,0,1-2.77,3,3.09,3.09,0,0,1-2.59.09,2.75,2.75,0,0,1-1.33-2.32,6.75,6.75,0,0,1,.59-2.71,1.06,1.06,0,0,0,.08-.83,1,1,0,0,0-.36-.36,21.47,21.47,0,0,0-2.47-1.4,2.23,2.23,0,0,1,.67-1.15C311.9,414.32,310.22,417.72,312.18,418.75Z"/><path class="cls-4" d="M248.63,403.75a2.44,2.44,0,0,1-1.51-.42,8.13,8.13,0,0,1-.79-.76,4,4,0,0,0-2.92-1.1,4.67,4.67,0,0,0-4.08,3.71,6.51,6.51,0,0,0,1.59,5.49,4.32,4.32,0,0,0,3.2,1.73,3.84,3.84,0,0,0,3.09-2.08,9.34,9.34,0,0,0,1-3.76,1.48,1.48,0,0,1,.41-1.09,1.36,1.36,0,0,1,.68-.21,26.35,26.35,0,0,1,4-.22,3.13,3.13,0,0,0-.13-1.86C251.74,398.37,251.73,403.68,248.63,403.75Z"/><path class="cls-3" d="M261,431.29a3.34,3.34,0,0,0-1.75,4,5,5,0,0,0,.58,1.09,9,9,0,0,0,7.23,3.88,3.43,3.43,0,0,0,2.83-1.08,3.24,3.24,0,0,0,.51-1.45C271.09,432.47,265.56,429.28,261,431.29Z"/><path class="cls-3" d="M244.53,381.11a1.6,1.6,0,0,0,2.4.39A1.91,1.91,0,0,0,247,379a1.71,1.71,0,0,0-1.37-.64,1.27,1.27,0,0,0-1.17.87,1.58,1.58,0,0,0-.1.56A12.28,12.28,0,0,0,244.53,381.11Z"/><path class="cls-4" d="M291.06,426.29c-.2,1.95-.29,4.2,1.12,5.55.8.76,1.93,1.08,2.75,1.81a4.19,4.19,0,0,1,.78,4.73,6.52,6.52,0,0,1-3.8,3.23,7.33,7.33,0,0,1-7.47-1.34,3.49,3.49,0,0,1-1.07-1.84A4.08,4.08,0,0,1,284.9,435a16.59,16.59,0,0,0,2.76-2.73c1.34-2.09.79-4.85-.09-7.18"/><path class="cls-4" d="M318.32,369.85a1.76,1.76,0,0,0,.27-1.09,6.49,6.49,0,0,0-.19-.76,2.86,2.86,0,0,1,.35-2.21,3.34,3.34,0,0,1,3.74-1.23,4.7,4.7,0,0,1,2.86,2.93,3.07,3.07,0,0,1-.06,2.6,2.71,2.71,0,0,1-2.38,1.19,6.55,6.55,0,0,1-2.68-.73,1.05,1.05,0,0,0-.82-.13,1,1,0,0,0-.37.35,19.44,19.44,0,0,0-1.54,2.39,2.28,2.28,0,0,1-1.11-.74C313.88,369.88,317.18,371.75,318.32,369.85Z"/><path class="cls-3" d="M322.34,366.31a1.59,1.59,0,0,0-1.64,1.78,1.89,1.89,0,0,0,2.06,1.48,1.71,1.71,0,0,0,1.29-.78,1.3,1.3,0,0,0-.08-1.47,2.16,2.16,0,0,0-.41-.39A10.74,10.74,0,0,0,322.34,366.31Z"/><path class="cls-2" d="M421.65,73.6a38.63,38.63,0,0,1,2.28,7.81c5.33,28.85-22.82,59.36-52.7,49.66a59.31,59.31,0,0,1-12.73-6.81c-12.58-9.17-20-25.44-16.42-41.29,3.46-15.28,15.07-29,30.38-33.25a35.54,35.54,0,0,1,14.1-1.12A41.32,41.32,0,0,1,392.87,50C405.31,53.68,416.54,61.27,421.65,73.6Z"/><path class="cls-3" d="M419,74.62A36.43,36.43,0,0,1,421.11,82c5.05,27.2-21.49,56-49.67,46.87a56.16,56.16,0,0,1-12-6.4c-11.88-8.65-18.9-24-15.52-38.94,3.25-14.42,14.19-27.36,28.63-31.39a33.45,33.45,0,0,1,13.31-1.07,37.71,37.71,0,0,1,5.94,1.31C403.52,55.84,414.12,63,419,74.62Z"/><path class="cls-2" d="M396.32,97.81a6.47,6.47,0,0,0-.64-2.29A3.81,3.81,0,0,0,393.91,94a7.49,7.49,0,0,0-4.62-.42A6.59,6.59,0,0,0,385.42,96a6.36,6.36,0,0,0-1.33,4.29,4.06,4.06,0,0,0,2.24,3.57,6.35,6.35,0,0,0,4.4.43,8,8,0,0,0,4-2.18A5.36,5.36,0,0,0,396.32,97.81Zm.08,0a6.08,6.08,0,0,1-1.36,4.56,7.82,7.82,0,0,1-4.12,2.68,6.71,6.71,0,0,1-4.95-.51,4.11,4.11,0,0,1-1.86-1.78,5.61,5.61,0,0,1-.66-2.45A6.92,6.92,0,0,1,385,95.64a7.11,7.11,0,0,1,4.2-2.46,7.82,7.82,0,0,1,4.77.67,4,4,0,0,1,1.77,1.63A6.43,6.43,0,0,1,396.4,97.8Z"/><path class="cls-2" d="M372.8,92.63a6.23,6.23,0,0,0-.65-2.28,3.72,3.72,0,0,0-1.76-1.52,7.56,7.56,0,0,0-4.62-.43,6.58,6.58,0,0,0-3.87,2.39,6.33,6.33,0,0,0-1.33,4.29,4,4,0,0,0,2.24,3.57,6.33,6.33,0,0,0,4.39.44,8.15,8.15,0,0,0,4-2.18A5.4,5.4,0,0,0,372.8,92.63Zm.07,0a6.11,6.11,0,0,1-1.35,4.57,7.88,7.88,0,0,1-4.13,2.68,6.76,6.76,0,0,1-4.95-.51,4.18,4.18,0,0,1-1.86-1.79,5.71,5.71,0,0,1-.66-2.45A7,7,0,0,1,365.69,88a7.75,7.75,0,0,1,4.77.67,4,4,0,0,1,1.76,1.63A6.24,6.24,0,0,1,372.87,92.62Z"/><path class="cls-2" d="M379,82.32a11.3,11.3,0,0,1-5.81-3,7,7,0,0,1-2-2.67,8.59,8.59,0,0,1-.38-3.34,10,10,0,0,1,2.63-6.11,8.46,8.46,0,0,1,6.15-2.6,7.72,7.72,0,0,1,3.36.74,8.07,8.07,0,0,1,2.67,2.18,9.55,9.55,0,0,1,2.06,6.45,11.13,11.13,0,0,1-.76,3.33A10.19,10.19,0,0,1,385,80.12,6.8,6.8,0,0,1,379,82.32Zm0-.07a6.6,6.6,0,0,0,3.21-.44,6.37,6.37,0,0,0,2.53-2,10.1,10.1,0,0,0,2.12-5.94,8.43,8.43,0,0,0-.43-3.12A9.5,9.5,0,0,0,384.94,68a6.75,6.75,0,0,0-5.42-2.77,7.87,7.87,0,0,0-5.77,2.32,9.51,9.51,0,0,0-2.6,5.79,8.08,8.08,0,0,0,.25,3.21,6.61,6.61,0,0,0,1.86,2.63A10.45,10.45,0,0,0,379,82.25Z"/><path class="cls-2" d="M389.32,117.94a1.2,1.2,0,0,1-1.53.48,1.1,1.1,0,0,1-.63-.73,1.41,1.41,0,0,1,.13-1,1.49,1.49,0,0,1,.76-.7,1.19,1.19,0,0,1,1.27,1.92l-.07,0a1.08,1.08,0,0,0-.56-1,.77.77,0,0,0-.41-.08.72.72,0,0,0-.44.27.69.69,0,0,0,.13,1,1,1,0,0,0,1.28-.17Z"/><path class="cls-2" d="M373.13,115.09l-.46-1.22.07.08a1.16,1.16,0,0,0-1.15.15.9.9,0,0,0-.43.92.82.82,0,0,0,.72.55.88.88,0,0,0,.89-.21l0,0c.13,0,.21-.43-.06-.63l0-.07a.68.68,0,0,1,.47,1.08l0-.06a1.36,1.36,0,0,1-1.57.75,1.41,1.41,0,0,1-.37-2.69,1.45,1.45,0,0,1,1.55,0l.05,0v0l.25,1.27Z"/><path class="cls-2" d="M409.09,73.5l-.7-2.07.06.08a2,2,0,0,0-2.06.19,1.78,1.78,0,0,0-.88,1.73,1.9,1.9,0,0,0,3.12.64l0-.06h0a.79.79,0,0,0-.24-1.21l0-.08a1.06,1.06,0,0,1,.65,1.67l0-.06a1.76,1.76,0,0,1-1,1,2.54,2.54,0,0,1-1.39.11,2.26,2.26,0,0,1-1.87-1.9,2.53,2.53,0,0,1,3.75-2.25l.05,0v0l.49,2.13Z"/><path class="cls-2" d="M367.42,61.58a1.52,1.52,0,0,0-1.41.48,2.35,2.35,0,0,0-.64,1.32,1.7,1.7,0,0,0,1.51,2,6.12,6.12,0,0,0,.74,0,.81.81,0,0,0,.27-.07.18.18,0,0,0,.07,0l.11-.11a2.1,2.1,0,0,0,.52-1.17,2.87,2.87,0,0,0-.1-1.39A1.53,1.53,0,0,0,367.42,61.58Zm0-.07a2.28,2.28,0,0,1,1.43.83,2.48,2.48,0,0,1,.53,1.69,2.42,2.42,0,0,1-.77,1.66l-.19.15a1,1,0,0,1-.27.15,1.66,1.66,0,0,1-.52.07,4.81,4.81,0,0,1-.85-.09,2.16,2.16,0,0,1-1.5-1,2.38,2.38,0,0,1-.32-1.7A2.31,2.31,0,0,1,367.43,61.51Z"/><path class="cls-2" d="M379.59,137.22a3.19,3.19,0,0,0,.77,1.86,10.68,10.68,0,0,0,1.1.89,5.15,5.15,0,0,1,1.84,3.56,6,6,0,0,1-4.11,5.78,8.42,8.42,0,0,1-7.26-1.18,5.58,5.58,0,0,1-2.69-3.82,4.94,4.94,0,0,1,2.18-4.28,11.94,11.94,0,0,1,4.65-1.8,1.87,1.87,0,0,0,1.33-.69,1.73,1.73,0,0,0,.17-.9,33.52,33.52,0,0,0-.33-5.1,4,4,0,0,1,2.39-.12C386,132.42,379.21,133.24,379.59,137.22Z"/><path class="cls-2" d="M338.53,72.41a4.39,4.39,0,0,0-2.73.57,13.81,13.81,0,0,0-1.51,1.26A7.11,7.11,0,0,1,329,75.82c-3.49-.41-6.29-3.6-6.8-7.08a11.68,11.68,0,0,1,3.5-9.58c1.56-1.59,3.67-2.86,5.89-2.66a6.78,6.78,0,0,1,5.25,4.07,16.63,16.63,0,0,1,1.25,6.79,2.59,2.59,0,0,0,.6,2,2.56,2.56,0,0,0,1.18.47,48.61,48.61,0,0,0,7,.87A5.53,5.53,0,0,1,346.4,74C343.4,82.35,344,72.92,338.53,72.41Z"/><path class="cls-2" d="M427.6,97.77a3.14,3.14,0,0,0,1.69-1.09,9.23,9.23,0,0,0,.69-1.23A5.13,5.13,0,0,1,433.16,93a6,6,0,0,1,6.41,3,8.39,8.39,0,0,1,.12,7.35,5.57,5.57,0,0,1-3.28,3.33,4.91,4.91,0,0,1-4.59-1.39,12,12,0,0,1-2.6-4.25c-.19-.48-.43-1-.92-1.19a1.75,1.75,0,0,0-.91,0,35.23,35.23,0,0,0-5,1.23,4,4,0,0,1-.54-2.33C421.74,92.33,423.75,98.85,427.6,97.77Z"/><path class="cls-2" d="M391.62,47.64a2,2,0,0,0-.45-1.22,5.68,5.68,0,0,0-.69-.61,3.37,3.37,0,0,1-1.12-2.35,3.89,3.89,0,0,1,2.8-3.65,5.48,5.48,0,0,1,4.68.93,3.64,3.64,0,0,1,1.65,2.54A3.19,3.19,0,0,1,397,46a7.82,7.82,0,0,1-3.05,1.06,1.25,1.25,0,0,0-.88.42,1.15,1.15,0,0,0-.13.58,22.88,22.88,0,0,0,.09,3.31,2.56,2.56,0,0,1-1.55,0C387.37,50.6,391.78,50.22,391.62,47.64Z"/><path class="cls-2" d="M350.67,121.21a2.07,2.07,0,0,0-.22,1.29,8.87,8.87,0,0,0,.29.87,3.34,3.34,0,0,1-.22,2.59,3.9,3.9,0,0,1-4.25,1.75,5.45,5.45,0,0,1-3.57-3.17,3.58,3.58,0,0,1-.15-3,3.17,3.17,0,0,1,2.67-1.58,7.73,7.73,0,0,1,3.17.62,1.19,1.19,0,0,0,1,.08,1.13,1.13,0,0,0,.41-.43,21.53,21.53,0,0,0,1.58-2.91,2.55,2.55,0,0,1,1.35.76C355.84,120.8,351.84,118.9,350.67,121.21Z"/><path class="cls-2" d="M366.86,46.83a2.83,2.83,0,0,1,.46-1.77,9.59,9.59,0,0,1,.87-.94,4.59,4.59,0,0,0,1.21-3.42A5.42,5.42,0,0,0,365,36a7.6,7.6,0,0,0-6.37,2,5.07,5.07,0,0,0-1.94,3.77,4.46,4.46,0,0,0,2.48,3.56,10.89,10.89,0,0,0,4.4,1,1.73,1.73,0,0,1,1.28.46,1.77,1.77,0,0,1,.27.78,32.52,32.52,0,0,1,.33,4.62,3.58,3.58,0,0,0,2.16-.19C373.19,50.34,367,50.44,366.86,46.83Z"/><path class="cls-3" d="M335,61.82a3.89,3.89,0,0,0-4.7-2,5.45,5.45,0,0,0-1.25.69,10.48,10.48,0,0,0-4.38,8.52A3.91,3.91,0,0,0,326,72.34a3.62,3.62,0,0,0,1.69.57C333.84,73.6,337.44,67.09,335,61.82Z"/><path class="cls-3" d="M393.16,41.59a1.85,1.85,0,0,0-.41,2.79,2.22,2.22,0,0,0,3,.07,2,2,0,0,0,.72-1.6,1.53,1.53,0,0,0-1.05-1.36,2.05,2.05,0,0,0-.65-.1A14.21,14.21,0,0,0,393.16,41.59Z"/><path class="cls-2" d="M341.45,96.75c-2.27-.19-4.89-.26-6.44,1.42-.87.94-1.22,2.27-2.06,3.24a4.87,4.87,0,0,1-5.49,1,7.52,7.52,0,0,1-3.84-4.37,8.51,8.51,0,0,1,1.4-8.73A4,4,0,0,1,327.14,88c1.49-.29,2.95.63,4,1.7a19.47,19.47,0,0,0,3.25,3.17c2.46,1.51,5.67.82,8.35-.25"/><path class="cls-2" d="M407.81,127.37a2,2,0,0,0,1.27.29,7.34,7.34,0,0,0,.89-.24,3.31,3.31,0,0,1,2.57.36,3.87,3.87,0,0,1,1.51,4.34,5.42,5.42,0,0,1-3.35,3.39,3.6,3.6,0,0,1-3,0,3.17,3.17,0,0,1-1.44-2.76,7.7,7.7,0,0,1,.79-3.13,1.19,1.19,0,0,0,.14-1,1.21,1.21,0,0,0-.41-.43,22.74,22.74,0,0,0-2.82-1.74,2.63,2.63,0,0,1,.83-1.31C407.67,122.19,405.57,126.08,407.81,127.37Z"/><path class="cls-3" d="M412,132a1.85,1.85,0,0,0-2.11-1.88,2.22,2.22,0,0,0-1.68,2.44,2,2,0,0,0,.94,1.49,1.51,1.51,0,0,0,1.7-.13,1.91,1.91,0,0,0,.45-.49A12.61,12.61,0,0,0,412,132Z"/></g></svg>